<?xml version="1.0" encoding="UTF-8"?>
<svg id="Layer_1" xmlns="http://www.w3.org/2000/svg" xmlns:xlink="http://www.w3.org/1999/xlink" version="1.1" viewBox="0 0 247.62 283.66">
  <!-- Generator: Adobe Illustrator 30.2.1, SVG Export Plug-In . SVG Version: 2.1.1 Build 1)  -->
  <defs>
    <style>
      .st0 {
        fill: none;
      }

      .st1, .st2 {
        fill: #272761;
      }

      .st3 {
        clip-path: url(#clippath-1);
      }

      .st2 {
        fill-rule: evenodd;
      }

      .st4 {
        fill: #fff;
      }

      .st5 {
        fill: #e88a3c;
      }

      .st6 {
        clip-path: url(#clippath);
      }
    </style>
    <clipPath id="clippath">
      <path class="st0" d="M242.38,221c-5.27,1.82-10.2,3.92-15.31,5.17-5.04,1.23-13.31,1.05-14.8,2.55s-1.58,10.1-2.83,15.21c-1.22,5.02-3.3,9.87-5.18,15.29-4.5-2.69-8.47-4.97-12.34-7.39-7.04-4.41-14.15-8.72-20.98-13.42-9.51-6.55-19.08-13.05-28.09-20.23-14.58-11.63-29.03-23.46-42.96-35.85-14.99-13.33-28.78-27.9-41.63-43.35-13-15.63-24.82-32.07-34.32-50.15C14.6,71.02,7.69,52.35,6.21,31.84c-.21-2.94-.97-6.7-1.08-10.27,5.54.41,11.63,1.36,16.86,2.04,18.18,2.37,34.85,8.88,50.77,17.33,18.54,9.84,32.37,24.67,48.34,38.14,18.46,15.58,38.41,30.1,54.27,48.27,7.75,8.89,15.25,18.02,22.47,27.35,7.25,9.36,14.29,18.91,20.9,28.74,7.84,11.64,15.13,23.66,22.65,35.52.26.4.43.87.99,2.03Z"/>
    </clipPath>
    <clipPath id="clippath-1">
      <path class="st0" d="M43.02,258.78c-1.82-5.27-3.92-10.2-5.17-15.31-1.23-5.04-1.19-13.5-2.63-14.78-1.23-1.09-10.02-1.61-15.13-2.85-5.02-1.22-9.87-3.3-15.29-5.18,2.69-4.5,4.97-8.47,7.39-12.34,4.41-7.04,8.72-14.15,13.42-20.98,6.55-9.51,13.05-19.08,20.23-28.09,11.63-14.58,23.46-29.03,35.85-42.96,13.33-14.99,27.9-28.78,43.35-41.63,15.63-13,32.07-24.82,50.15-34.32,17.8-9.35,36.46-16.25,56.98-17.74,2.94-.21,6.66-.92,10.23-1.03-.41,5.54-1.33,11.58-2.01,16.81-2.37,18.18-8.88,34.85-17.33,50.77-9.84,18.54-24.67,32.37-38.14,48.34-15.58,18.46-30.1,38.41-48.27,54.27-8.89,7.75-18.02,15.25-27.35,22.47-9.36,7.25-18.91,14.29-28.74,20.9-11.64,7.84-23.66,15.13-35.52,22.65-.4.26-.87.43-2.03.99Z"/>
    </clipPath>
  </defs>
  <g>
    <path class="st1" d="M79.29,28.91l-2.72-8.03c-.6-1.78-.01-2.91,1.75-3.51l4.73-1.61c1.76-.6,2.88-.05,3.48,1.73l.78,2.31-3.14,1.07-.62-1.84c-.1-.28-.22-.33-.48-.24l-2.95,1c-.26.09-.33.2-.24.48l2.4,7.08c.09.27.22.33.48.24l2.95-1c.27-.09.33-.22.24-.48l-.63-1.86,3.14-1.07.79,2.33c.6,1.76.03,2.9-1.73,3.5l-4.73,1.61c-1.76.6-2.9.03-3.5-1.73Z"/>
    <path class="st1" d="M89.87,13.75l9.41-2.1.63,2.81-6.17,1.38.55,2.48,4.94-1.1.62,2.77-4.94,1.1.62,2.79,6.17-1.38.63,2.81-9.41,2.1-3.05-13.66Z"/>
    <path class="st1" d="M106.62,13.51l-3.62.42-.34-2.88,10.55-1.24.34,2.88-3.64.43,1.3,11.03-3.3.39-1.3-11.03Z"/>
    <path class="st1" d="M117.2,9.6l9.64-.15.05,2.88-6.32.1.04,2.54,5.06-.08.05,2.84-5.06.08.05,2.86,6.32-.1.05,2.88-9.64.15-.22-14Z"/>
    <path class="st1" d="M130.07,9.52l3.58.33,1.68,10.65,3.58-10.17,3.49.32-5.53,13.55-3.8-.35-2.99-14.33Z"/>
    <path class="st1" d="M149.66,23.23l-4.38-.85-1.35,2.75-3.38-.66,6.83-12.94,4.5.87,1.51,14.56-3.52-.68-.22-3.06ZM149.45,20.32l-.39-5.66-2.5,5.1,2.89.56Z"/>
    <path class="st1" d="M159.68,14.21l3.22,1.04,2.18,9.34,2.52-7.83,3.07.99-4.29,13.33-2.93-.94-2.33-9.87-2.66,8.26-3.07-.99,4.29-13.33Z"/>
  </g>
  <g>
    <path class="st1" d="M71.31,260.43l2.63-6.68c.58-1.48,1.58-1.89,3.05-1.31l3.94,1.55c1.47.58,1.89,1.54,1.3,3.03l-.76,1.92-2.62-1.03.6-1.53c.09-.24.04-.33-.18-.42l-2.46-.97c-.22-.09-.32-.05-.42.18l-2.32,5.89c-.09.22-.04.33.18.42l2.46.97c.22.09.33.04.42-.18l.61-1.54,2.62,1.03-.76,1.94c-.58,1.47-1.57,1.9-3.03,1.32l-3.94-1.55c-1.47-.58-1.9-1.57-1.32-3.03Z"/>
    <path class="st1" d="M82.17,264.57l2.02-6.9c.45-1.53,1.39-2.03,2.9-1.59l4.38,1.28c1.53.45,2.04,1.37,1.59,2.9l-2.02,6.9c-.44,1.51-1.37,2.04-2.9,1.59l-4.38-1.28c-1.51-.44-2.03-1.39-1.59-2.9ZM88.05,266.19c.24.07.33,0,.4-.22l1.78-6.08c.07-.24.03-.33-.22-.4l-2.85-.83c-.23-.07-.33-.03-.4.22l-1.78,6.08c-.07.23,0,.33.22.4l2.85.83Z"/>
    <path class="st1" d="M95.99,258.59l2.81.53,2.81,7.62,1.3-6.84,2.68.51-2.21,11.65-2.56-.49-2.99-8.05-1.37,7.22-2.68-.51,2.21-11.65Z"/>
    <path class="st1" d="M106.92,270.18l.14-1.55,2.77.26-.11,1.2c-.02.24.05.33.29.35l2.66.25c.24.02.33-.05.35-.29l.11-1.23c.03-.27-.08-.37-.43-.48l-3.07-1.05c-1.53-.53-2.35-1.05-2.2-2.65l.18-1.94c.15-1.58.98-2.26,2.54-2.11l3.98.37c1.57.15,2.26.96,2.11,2.54l-.13,1.42-2.77-.26.1-1.06c.02-.25-.05-.33-.29-.35l-2.43-.23c-.24-.02-.33.04-.35.29l-.1,1.1c-.03.27.07.36.43.48l3.07,1.05c1.53.53,2.35,1.05,2.2,2.65l-.19,2.07c-.15,1.57-.98,2.26-2.54,2.11l-4.21-.39c-1.57-.15-2.26-.98-2.11-2.54Z"/>
    <path class="st1" d="M118.65,271.1l.15-9.52,2.81.04-.15,9.04c0,.22.1.32.32.33l2.76.04c.24,0,.32-.1.33-.32l.15-9.04,2.81.05-.15,9.52c-.02,1.54-.82,2.32-2.38,2.3l-4.35-.07c-1.54-.03-2.32-.83-2.3-2.38Z"/>
    <path class="st1" d="M130.27,261.53l2.8-.23.75,9.36,4.92-.39.2,2.47-7.72.62-.95-11.82Z"/>
    <path class="st1" d="M140.8,262.98l-3.05.45-.36-2.43,8.9-1.3.36,2.43-3.07.45,1.36,9.3-2.78.41-1.36-9.3Z"/>
    <path class="st1" d="M147.97,259.29l2.75-.58,2.46,11.6-2.75.58-2.46-11.6Z"/>
    <path class="st1" d="M153.25,258.2l2.75-.79,5.95,5.53-1.93-6.69,2.62-.76,3.29,11.4-2.51.72-6.3-5.83,2.04,7.07-2.62.76-3.29-11.4Z"/>
    <path class="st1" d="M168.35,263.58l-2.65-6.68c-.59-1.48-.15-2.45,1.31-3.03l4.08-1.62c1.46-.58,2.45-.17,3.03,1.31l.58,1.46-2.6,1.03-.43-1.09c-.09-.24-.2-.27-.42-.18l-2.61,1.04c-.22.09-.27.18-.18.42l2.35,5.92c.09.22.2.27.42.18l2.61-1.04c.22-.09.27-.2.18-.42l-.61-1.54-1.86.74-.85-2.16,4.46-1.77,1.62,4.08c.58,1.46.15,2.45-1.31,3.03l-4.08,1.62c-1.46.58-2.45.15-3.03-1.31Z"/>
  </g>
  <g>
    <g>
      <path class="st4" d="M244.94,223.31c-5.31,1.77-10.28,3.83-15.44,5.03-5.09,1.18-10.37,1.49-15.41,2.16-.69,5.08-1.03,10.44-2.22,15.6-1.17,5.07-3.21,9.96-5.04,15.43-4.6-2.79-8.65-5.14-12.6-7.65-7.19-4.56-14.45-9.02-21.44-13.88-9.72-6.76-19.51-13.47-28.73-20.87-14.93-11.98-29.73-24.16-44.01-36.9-15.36-13.71-29.53-28.66-42.76-44.48-13.38-16.01-25.58-32.83-35.44-51.27C12.15,68.31,4.91,49.3,3.13,28.5c-.25-2.98-.29-5.98-.45-9.6,5.62.49,11.02.72,16.33,1.48,18.45,2.64,35.43,9.46,51.68,18.23,18.92,10.21,33.51,24.86,49.87,38.72,18.92,16.03,38.94,31.58,55.25,50.2,7.98,9.11,15.69,18.46,23.13,28.01,7.47,9.58,14.73,19.36,21.56,29.4,8.1,11.9,15.65,24.17,23.42,36.29.27.41.44.88,1.03,2.07Z"/>
      <path class="st5" d="M206.83,264.02c-.45,0-.9-.12-1.3-.36-1.46-.89-2.87-1.73-4.23-2.54-2.93-1.75-5.69-3.41-8.41-5.14-1.52-.96-3.04-1.93-4.57-2.89-5.61-3.53-11.41-7.19-16.96-11.05l-2.31-1.6c-8.85-6.15-18-12.5-26.56-19.37-12.32-9.89-28.47-23.03-44.11-36.98-14.64-13.07-29.12-28.12-43.01-44.74-15.09-18.05-26.78-34.96-35.73-51.7C8.3,66.42,2.26,47.69.64,28.71c-.18-2.06-.25-4.14-.33-6.33-.04-1.07-.08-2.18-.13-3.37-.03-.72.25-1.42.77-1.92.52-.5,1.23-.75,1.95-.69,1.77.15,3.51.28,5.24.41,3.86.28,7.51.55,11.22,1.08,16.93,2.42,33.61,8.3,52.51,18.51,14.99,8.09,26.98,18.64,39.68,29.8,3.45,3.03,7.02,6.17,10.62,9.22,3.51,2.98,7.06,5.94,10.62,8.9,15.48,12.91,31.49,26.25,44.9,41.56,7.87,8.99,15.69,18.45,23.22,28.12,8.31,10.67,15.39,20.33,21.66,29.53,5.73,8.42,11.27,17.16,16.63,25.61,2.27,3.58,4.54,7.17,6.84,10.74.25.39.43.77.67,1.28.13.27.28.6.5,1.04.32.65.34,1.4.06,2.07-.28.67-.83,1.18-1.52,1.41-1.62.54-3.2,1.11-4.77,1.67-3.53,1.26-7.18,2.57-10.9,3.43-3.69.86-7.44,1.27-11.07,1.66-.89.1-1.78.19-2.67.3-.11.9-.21,1.8-.31,2.71-.41,3.67-.84,7.47-1.71,11.21-.84,3.64-2.08,7.09-3.39,10.74-.57,1.6-1.16,3.23-1.72,4.91-.24.72-.8,1.29-1.51,1.55-.28.1-.57.15-.86.15ZM5.29,21.62c0,.2.01.39.02.58.07,2.13.14,4.14.31,6.08,1.56,18.28,7.42,36.39,18.44,57,8.78,16.43,20.28,33.06,35.15,50.85,13.94,16.67,27.84,31.13,42.51,44.22,15.55,13.88,31.63,26.96,43.91,36.81,8.42,6.76,17.5,13.07,26.28,19.16l2.31,1.61c5.46,3.8,11.21,7.42,16.77,10.93,1.53.96,3.06,1.93,4.58,2.9,2.67,1.69,5.4,3.33,8.3,5.07.53.32,1.06.64,1.6.96.25-.7.49-1.39.74-2.07,1.26-3.51,2.45-6.83,3.22-10.18.8-3.46,1.21-7.12,1.61-10.65.18-1.59.36-3.17.57-4.72.15-1.12,1.03-2,2.15-2.14,1.54-.21,3.11-.38,4.69-.55,3.48-.38,7.08-.77,10.48-1.56,3.43-.8,6.79-2,10.34-3.27.69-.25,1.39-.5,2.09-.74-2.15-3.35-4.28-6.71-6.41-10.07-5.33-8.42-10.85-17.12-16.54-25.47-6.2-9.11-13.22-18.69-21.47-29.27-7.48-9.6-15.23-18.98-23.04-27.9-13.15-15.02-29.01-28.23-44.34-41.02-3.57-2.97-7.13-5.94-10.65-8.93-3.63-3.08-7.22-6.23-10.69-9.28-12.48-10.97-24.27-21.33-38.75-29.15-18.36-9.91-34.52-15.62-50.84-17.96-3.54-.51-7.11-.77-10.88-1.05-.82-.06-1.65-.12-2.49-.18Z"/>
    </g>
    <g class="st6">
      <g>
        <polygon class="st1" points="239.11 253.19 236.62 255.37 -8.36 10.39 -5.88 8.21 239.11 253.19"/>
        <path class="st1" d="M236.6,256.06L-9.09,10.36l3.23-2.84,245.69,245.69-3.23,2.84ZM-7.63,10.41l244.28,244.28,1.73-1.52L-5.9,8.89l-1.73,1.52Z"/>
      </g>
    </g>
    <g>
      <g>
        <circle class="st5" cx="33.34" cy="48.71" r="14.8"/>
        <path class="st4" d="M33.34,64.51c-4.05,0-8.09-1.54-11.17-4.62-2.98-2.98-4.63-6.95-4.63-11.17s1.64-8.19,4.63-11.17c6.16-6.16,16.19-6.16,22.35,0h0c6.16,6.16,6.16,16.19,0,22.35-3.08,3.08-7.13,4.62-11.17,4.62ZM33.34,34.92c-3.53,0-7.07,1.35-9.76,4.04-2.61,2.61-4.04,6.07-4.04,9.76s1.44,7.15,4.04,9.76c5.38,5.38,14.14,5.38,19.52,0,5.38-5.38,5.38-14.14,0-19.52-2.69-2.69-6.23-4.04-9.76-4.04Z"/>
      </g>
      <path class="st4" d="M24.36,48.99c.79-.79,1.56-1.56,2.37-2.37-.66-.66-1.3-1.3-1.95-1.95.41-.41.78-.78,1.18-1.18.63.63,1.25,1.25,1.88,1.88l.94-.94c-.62-.62-1.23-1.23-1.87-1.87.41-.41.79-.79,1.19-1.19.64.64,1.27,1.27,1.89,1.89.59-.38,1.13-.77,1.71-1.08,1.85-.97,3.34-.07,4.1,1.31.27.49.31,1.02.2,1.56-.02.1-.04.21-.07.35.24-.12.44-.22.64-.31.89-.37,1.77-.35,2.56.24.98.74,1.74,1.65,1.81,2.94.06,1-.37,1.84-.92,2.63-.32.46-.68.89-1.03,1.35.64.64,1.28,1.28,1.93,1.93-.4.4-.78.78-1.18,1.18-.64-.64-1.26-1.26-1.91-1.91l-.94.94,1.91,1.91-1.19,1.19c-.64-.64-1.28-1.28-1.95-1.95-.8.8-1.58,1.58-2.4,2.4-.41-.58-.79-1.1-1.18-1.65.25-.25.49-.49.73-.73.45-.46.45-.72,0-1.17-.98-.98-1.97-1.97-2.95-2.95-.66-.66-1.33-1.33-1.99-1.99-.49-.49-.92-.51-1.43-.04-.29.26-.55.54-.84.83l-1.24-1.24ZM32.86,50.31c.88.88,1.73,1.73,2.64,2.64.53-.59,1.08-1.13,1.55-1.73.32-.4.59-.87.77-1.35.33-.91-.17-1.81-1.07-2.01-.48-.11-.92.02-1.34.24-1.02.54-1.77,1.38-2.55,2.21ZM31.63,49.1c.42-.42.85-.78,1.19-1.21.3-.37.55-.8.74-1.24.24-.56.11-1.09-.35-1.53-.45-.43-.96-.51-1.52-.31-1.03.37-1.68,1.19-2.41,1.94.8.8,1.56,1.56,2.34,2.34Z"/>
    </g>
  </g>
  <g>
    <g>
      <path class="st4" d="M40.71,261.35c-1.77-5.31-3.83-10.28-5.03-15.44-1.18-5.09-1.49-10.37-2.16-15.41-5.08-.69-10.44-1.03-15.6-2.22-5.07-1.17-9.96-3.21-15.43-5.04,2.79-4.6,5.14-8.65,7.65-12.6,4.56-7.19,9.02-14.45,13.88-21.44,6.76-9.72,13.47-19.51,20.87-28.73,11.98-14.93,24.16-29.73,36.9-44.01,13.71-15.36,28.66-29.53,44.48-42.76,16.01-13.38,32.83-25.58,51.27-35.44,18.16-9.71,37.16-16.95,57.97-18.73,2.98-.25,5.98-.29,9.6-.45-.49,5.62-.72,11.02-1.48,16.33-2.64,18.45-9.46,35.43-18.23,51.68-10.21,18.92-24.86,33.51-38.72,49.87-16.03,18.92-31.58,38.94-50.2,55.25-9.11,7.98-18.46,15.69-28.01,23.13-9.58,7.47-19.36,14.73-29.4,21.56-11.9,8.1-24.17,15.65-36.29,23.42-.41.27-.88.44-2.07,1.03Z"/>
      <path class="st5" d="M40.71,263.85c-.33,0-.65-.06-.96-.19-.67-.28-1.18-.83-1.41-1.52-.54-1.62-1.11-3.21-1.67-4.78-1.26-3.53-2.57-7.18-3.43-10.89-.86-3.69-1.27-7.44-1.66-11.06-.1-.89-.2-1.79-.3-2.67-.9-.11-1.8-.21-2.71-.31-3.67-.42-7.47-.84-11.21-1.71-3.64-.84-7.09-2.08-10.74-3.39-1.6-.57-3.23-1.16-4.91-1.72-.72-.24-1.29-.8-1.55-1.51-.26-.71-.18-1.51.21-2.16.89-1.47,1.74-2.88,2.56-4.25,1.75-2.92,3.4-5.68,5.12-8.39.96-1.51,1.92-3.03,2.87-4.54,3.54-5.62,7.2-11.42,11.07-16.98l1.64-2.36c6.14-8.83,12.48-17.97,19.34-26.51,9.89-12.32,23.03-28.47,36.98-44.1,13.25-14.85,27.88-28.92,44.74-43.01,18.05-15.09,34.96-26.78,51.7-35.73,21.23-11.35,39.96-17.39,58.93-19.01,2.06-.18,4.14-.25,6.33-.32,1.07-.04,2.18-.08,3.37-.13.72-.04,1.42.25,1.92.77s.75,1.23.69,1.95c-.16,1.78-.28,3.53-.41,5.26-.28,3.85-.55,7.49-1.08,11.2-2.42,16.93-8.31,33.61-18.51,52.51-8.09,14.99-18.64,26.98-29.8,39.68-3.03,3.45-6.17,7.02-9.22,10.62-2.98,3.51-5.93,7.06-8.9,10.62-12.91,15.48-26.25,31.49-41.57,44.9-8.98,7.87-18.44,15.68-28.12,23.22-10.66,8.31-20.32,15.39-29.53,21.66-8.42,5.73-17.16,11.27-25.61,16.63-3.58,2.27-7.17,4.54-10.74,6.84-.39.25-.77.43-1.28.67-.27.13-.6.28-1.04.5-.35.17-.73.26-1.1.26ZM6.24,221.88c.7.25,1.39.49,2.07.74,3.51,1.26,6.83,2.45,10.18,3.22,3.46.8,7.11,1.21,10.65,1.61,1.59.18,3.17.36,4.73.57,1.12.15,1.99,1.03,2.14,2.15.21,1.55.38,3.12.55,4.69.38,3.48.77,7.08,1.56,10.48.8,3.43,2,6.79,3.27,10.34.25.69.5,1.39.74,2.09,3.35-2.15,6.71-4.28,10.07-6.41,8.42-5.33,17.12-10.85,25.47-16.54,9.12-6.21,18.69-13.23,29.27-21.47,9.6-7.48,18.99-15.23,27.9-23.04,15.02-13.15,28.24-29.01,41.02-44.34,2.97-3.57,5.94-7.12,8.92-10.65,3.08-3.63,6.23-7.22,9.28-10.68,10.97-12.48,21.33-24.27,29.15-38.75,9.91-18.36,15.62-34.52,17.96-50.84.51-3.54.77-7.09,1.04-10.86.06-.83.12-1.67.19-2.51-.2,0-.39.01-.58.02-2.13.07-4.15.14-6.08.31-18.28,1.56-36.39,7.42-57,18.44-16.43,8.78-33.06,20.28-50.85,35.15-16.67,13.94-31.13,27.84-44.22,42.51-13.88,15.55-26.96,31.63-36.81,43.91-6.75,8.41-13.04,17.47-19.13,26.24l-1.64,2.36c-3.8,5.47-7.43,11.22-10.94,16.79-.96,1.52-1.92,3.04-2.88,4.56-1.69,2.66-3.32,5.39-5.06,8.28-.32.54-.64,1.08-.97,1.62Z"/>
    </g>
    <g class="st3">
      <g>
        <polygon class="st1" points="10.83 255.51 8.65 253.03 253.64 8.04 255.82 10.52 10.83 255.51"/>
        <path class="st1" d="M10.81,256.24l-2.84-3.23.33-.33L253.66,7.31l2.84,3.23-.33.33L10.81,256.24ZM9.34,253.05l1.52,1.73L255.13,10.5l-1.52-1.73L9.34,253.05Z"/>
      </g>
    </g>
    <g>
      <g>
        <circle class="st5" cx="215.31" cy="49.74" r="14.8"/>
        <path class="st4" d="M215.31,65.54c-4.05,0-8.09-1.54-11.17-4.62-6.16-6.16-6.16-16.19,0-22.35,6.16-6.16,16.19-6.16,22.35,0,2.98,2.98,4.63,6.95,4.63,11.17s-1.64,8.19-4.63,11.17h0c-3.08,3.08-7.13,4.62-11.17,4.62ZM215.31,35.95c-3.53,0-7.07,1.35-9.76,4.04-5.38,5.38-5.38,14.14,0,19.52,5.38,5.38,14.14,5.38,19.52,0,2.61-2.61,4.04-6.07,4.04-9.76s-1.44-7.15-4.04-9.76c-2.69-2.69-6.23-4.04-9.76-4.04ZM225.78,60.21h0,0Z"/>
      </g>
      <path class="st4" d="M215.04,40.76c.79.79,1.56,1.56,2.37,2.37.66-.66,1.3-1.3,1.95-1.95.41.41.78.78,1.18,1.18-.63.63-1.25,1.25-1.88,1.88.32.32.62.62.94.94.62-.62,1.23-1.23,1.87-1.87.41.41.79.79,1.19,1.19l-1.89,1.89c.38.59.77,1.13,1.08,1.71.97,1.85.07,3.34-1.31,4.1-.49.27-1.02.31-1.56.2-.1-.02-.21-.04-.35-.07.12.24.22.44.31.64.37.89.35,1.77-.24,2.56-.74.98-1.65,1.74-2.94,1.81-1,.06-1.84-.37-2.63-.92-.46-.32-.89-.68-1.35-1.03-.64.64-1.28,1.28-1.93,1.93-.4-.4-.78-.78-1.18-1.18.64-.64,1.26-1.26,1.91-1.91-.32-.32-.61-.61-.94-.94-.62.62-1.25,1.25-1.91,1.91-.41-.41-.79-.79-1.19-1.19l1.95-1.95c-.8-.8-1.58-1.58-2.4-2.4.58-.41,1.1-.79,1.65-1.18.25.25.49.49.73.73.46.45.72.45,1.17,0,.98-.98,1.97-1.97,2.95-2.95.66-.66,1.33-1.33,1.99-1.99.49-.49.51-.92.04-1.43-.26-.29-.54-.55-.83-.84l1.24-1.24ZM213.72,49.27c-.88.88-1.73,1.73-2.64,2.64.59.53,1.13,1.08,1.73,1.55.4.32.87.59,1.35.77.91.33,1.81-.17,2.01-1.07.11-.48-.02-.92-.24-1.34-.54-1.02-1.38-1.77-2.21-2.55ZM214.93,48.03c.42.42.78.85,1.21,1.19.37.3.8.55,1.24.74.56.24,1.09.11,1.53-.35.43-.45.51-.96.31-1.52-.37-1.03-1.19-1.68-1.94-2.41-.8.8-1.56,1.56-2.34,2.34Z"/>
    </g>
  </g>
  <g>
    <path class="st4" d="M57.25,115.88l-3.57-1.39c-3.71-2.24-6.75-5.75-8.44-10.22-3.97-10.52,1.03-22.38,11.16-26.5,5.5-2.24,11.39-1.73,16.25.89l2.89,1.95"/>
    <path class="st1" d="M56.16,118.68l-4.02-1.62c-4.4-2.65-7.84-6.82-9.7-11.73-4.53-12.01,1.23-25.62,12.84-30.33,6.12-2.49,12.97-2.11,18.81,1.03l.26.16,2.89,1.96-3.36,4.97-2.76-1.87c-4.23-2.23-9.17-2.48-13.57-.69-8.62,3.5-12.87,13.67-9.48,22.66,1.37,3.63,3.78,6.6,6.97,8.58l3.32,1.29-2.18,5.59Z"/>
  </g>
  <g>
    <path class="st4" d="M185.01,115.88l3.57-1.39c3.71-2.24,6.75-5.75,8.44-10.22,3.97-10.52-1.03-22.38-11.16-26.5-5.5-2.24-11.39-1.73-16.25.89l-2.89,1.95"/>
    <path class="st1" d="M186.1,118.68l-2.18-5.59,3.32-1.29c3.19-1.99,5.6-4.95,6.97-8.58,3.39-8.99-.86-19.16-9.48-22.66-4.41-1.79-9.35-1.54-13.57.69l-2.76,1.87-3.36-4.97,3.15-2.11c5.83-3.14,12.69-3.52,18.81-1.03,11.61,4.72,17.37,18.32,12.84,30.33-1.85,4.92-5.3,9.08-9.7,11.73l-.46.23-3.57,1.39Z"/>
  </g>
  <path class="st5" d="M187.22,101.63c2.37-5.12.4-11.21-4.4-13.6-2.04-1.02-4.27-1.2-6.33-.69"/>
  <path class="st5" d="M55.04,101.18c-2.37-5.12-.4-11.21,4.4-13.6,2.04-1.02,4.27-1.2,6.33-.69"/>
  <g>
    <path class="st4" d="M121.31,223c.85.85,2.75,3.72,4.3,3.72,2.07,0,15-1.4,17.68-1.61s4.34-4.29,5.79-9.66c1.45-5.37,3.83-22.22,9.41-29.3,5.58-7.08,11.37-10.2,17.57-16.64s8.89-62.9,8.06-68.27c-.83-5.37-18.82-20.61-18.82-20.61,0,0-10.55-11.36-15.97-15.69-1.26-1.01-10.93-.3-10.93-.3l.31-11.32-16.11,7.57,2.25-12.28s-20.86,11.38-30.06,17.72c-4.98,3.43-17.89,14.3-17.89,14.3,0,0-17.99,15.24-18.82,20.61-.83,5.37,1.86,61.83,8.06,68.27,6.2,6.44,13.13,9.55,18.71,16.64s7.96,23.94,9.41,29.3c1.45,5.37,3.1,9.45,5.79,9.66,2.69.21,14.48,1.61,16.54,1.61,1.55,0,3.45-2.87,4.3-3.72h.39Z"/>
    <path class="st1" d="M125.61,229.72c-1.83,0-3.31-1.13-4.5-2.38-1.19,1.25-2.67,2.38-4.5,2.38-1.37,0-5.49-.43-11.17-1.04-2.4-.26-4.67-.5-5.61-.58-4.95-.4-6.96-6.33-8.45-11.87-.34-1.26-.72-3.05-1.15-5.13-1.42-6.78-3.79-18.12-7.72-23.1-2.91-3.69-6.26-6.25-9.8-8.97-2.87-2.2-5.84-4.47-8.71-7.45-7.56-7.85-9.56-66.33-8.87-70.81.93-6.01,15.42-18.7,19.84-22.44.54-.45,13.08-11.01,18.12-14.48,9.22-6.36,29.47-17.42,30.33-17.89l5.52-3.01-2.34,12.74,15.24-7.16-.35,12.92c7.85-.34,9.09.64,9.71,1.14,5.28,4.21,14.92,14.51,16.18,15.87,4.57,3.88,18.79,16.38,19.71,22.33.69,4.48-1.3,62.96-8.87,70.81-2.71,2.81-5.3,4.98-7.81,7.09-3.35,2.8-6.51,5.45-9.56,9.33-3.92,4.98-6.3,16.32-7.72,23.1-.43,2.08-.81,3.87-1.15,5.13-1.49,5.54-3.5,11.47-8.45,11.87-.9.07-2.95.28-5.35.52-6.26.62-11.16,1.1-12.57,1.1ZM119.69,220h2.86l.88.87c.31.3.61.67.97,1.1.36.43,1.13,1.37,1.61,1.74,1.84-.09,7.65-.67,11.59-1.06,2.46-.25,4.55-.45,5.47-.53.16-.09,1.37-.93,3.13-7.45.29-1.09.65-2.81,1.07-4.8,1.63-7.77,4.08-19.5,8.88-25.58,3.44-4.37,6.99-7.34,10.42-10.21,2.39-2,4.86-4.07,7.35-6.65,4.82-5,8.24-59.4,7.26-65.73-.44-2.59-9.56-11.8-17.79-18.78l-.26-.25c-.1-.11-10.03-10.79-15.31-15.12-1.38-.25-5.71-.17-9.17.08l-3.31.24.27-9.77-16.98,7.98,2.16-11.78c-6.81,3.81-18.2,10.31-24.27,14.49-4.8,3.31-17.53,14.02-17.66,14.13-8.23,6.97-17.34,16.18-17.78,18.77-.98,6.33,2.44,60.73,7.26,65.73,2.55,2.65,5.22,4.69,8.04,6.84,3.68,2.82,7.49,5.73,10.87,10.02,4.79,6.08,7.25,17.82,8.88,25.58.42,1.99.78,3.7,1.07,4.8,1.76,6.52,2.98,7.37,3.2,7.47.96.07,3.16.3,5.7.58,3.42.37,8.45.91,10.15,1,.48-.37,1.25-1.31,1.61-1.74.35-.43.66-.79.97-1.1l.88-.87ZM148.02,67.59h0Z"/>
  </g>
  <g>
    <g>
      <path class="st2" d="M124.54,93.2c-1.37-.04-2.74-.08-4.11-.12l.22,5.63,5.16,14.33-1.63-14.53,8.97,8.31-8.61-13.61Z"/>
      <path class="st1" d="M125.81,113.29c-.1,0-.2-.06-.24-.17l-5.16-14.33s-.01-.05-.01-.08l-.22-5.63c0-.07.02-.14.07-.19.05-.05.12-.06.19-.07,1.37.04,2.74.08,4.11.12.08,0,.16.05.2.12l8.61,13.61c.07.11.04.25-.05.33-.1.08-.24.08-.33,0l-8.48-7.85,1.56,13.87c.01.13-.07.24-.19.27-.02,0-.04,0-.06,0ZM120.9,98.66l4.43,12.29-1.39-12.42c-.01-.1.04-.2.14-.25.09-.05.21-.03.28.04l7.56,7-7.52-11.88c-1.24-.03-2.47-.07-3.71-.11l.21,5.33Z"/>
    </g>
    <g>
      <path class="st2" d="M133.63,93.41c-2.62-.05-5.23-.11-7.85-.18l1.98,3.06,12.5,11.39-9.4-12.7,2.77-1.57Z"/>
      <path class="st1" d="M140.26,107.92c-.06,0-.12-.02-.17-.07l-12.5-11.39s-.03-.03-.04-.05l-1.98-3.06c-.05-.08-.05-.18,0-.26s.14-.13.23-.13c2.62.07,5.23.13,7.85.18.11,0,.21.08.24.19.03.11-.02.22-.12.28l-2.52,1.43,9.23,12.47c.08.1.06.25-.03.33-.05.04-.11.06-.17.06ZM127.95,96.12l10.58,9.64-7.87-10.64c-.04-.06-.06-.13-.04-.2.02-.07.06-.13.12-.17l1.97-1.12c-2.15-.04-4.31-.09-6.46-.15l1.71,2.63Z"/>
    </g>
    <g>
      <path class="st2" d="M115.71,92.94l-8.78,13.87,8.97-8.31-1.63,14.53,5.16-14.33.22-5.65c-1.32-.04-2.63-.08-3.95-.12Z"/>
      <path class="st1" d="M114.27,113.29s-.04,0-.06,0c-.12-.03-.21-.15-.19-.27l1.56-13.87-8.48,7.85c-.09.08-.23.09-.33,0-.1-.08-.12-.22-.05-.33l8.78-13.87c.05-.07.11-.11.22-.12l3.94.12c.07,0,.13.03.18.08.05.05.07.11.07.18l-.22,5.65s0,.05-.01.08l-5.16,14.33c-.04.1-.13.17-.24.17ZM115.9,98.25s.08,0,.11.03c.09.05.15.15.14.25l-1.39,12.42,4.43-12.29.21-5.36-3.55-.11-7.68,12.13,7.56-7s.11-.07.17-.07Z"/>
    </g>
    <g>
      <path class="st2" d="M107.59,92.69l1.64,2.28-9.4,12.7,12.5-11.39,2.2-3.39c-2.31-.07-4.62-.14-6.93-.21Z"/>
      <path class="st1" d="M99.83,107.92c-.06,0-.12-.02-.17-.06-.1-.09-.11-.23-.03-.33l9.29-12.55-1.53-2.13c-.06-.08-.06-.18-.02-.26s.14-.12.23-.13c2.31.07,4.62.13,6.93.21.09,0,.17.05.21.13.04.08.04.18-.01.25l-2.2,3.39s-.03.03-.04.05l-12.5,11.39s-.11.07-.17.07ZM108.08,92.96l1.34,1.87c.06.09.06.21,0,.29l-7.87,10.64,10.58-9.64,1.94-2.99c-2-.06-3.99-.12-5.98-.18Z"/>
    </g>
  </g>
  <path class="st1" d="M147.71,135.32l-2.66-7.05-15.36,69.32,2.15.16c-3.24,5.95-8.9,7.01-10.49,7.19-.24,1.04-.38,1.64-.38,1.64,0,0,0-.57.02-1.61,0,0-.02,0-.02,0-.07,0-.21-.02-.39-.04.01,1.05.02,1.64.02,1.64,0,0-.14-.62-.39-1.69-1.96-.3-5.97-1.59-9-7.14l1.03-.16-15.36-69.32-2.66,7.05-4.03-3.02-14.82-.54c3.5,1.58,31.2,65.15,31.2,65.15,0,0,1.99,3.62,2.42,3.61,1.14,1.83,1.33,3.25,2.68,4.35,4.14,2.29,8.86,3.18,13.47,2.85,2.74-.97,6.26-3,8.88-7.2.78,0-.9-1.2-.9-1.2,0,0,29.9-65.98,33.4-67.56l-14.82.54-4.03,3.02ZM89.56,142.59c-1.83-.41-2.98-1.45-3.5-3.18-.23-.75-.29-2.26-.3-2.79l4.58.84,4.17,3.27c-.66,1.01-2.14,2.48-4.96,1.85ZM156.19,136.63c0,.53-.07,2.04-.3,2.79-.52,1.73-1.66,2.77-3.5,3.18-2.82.63-4.3-.84-4.96-1.85l4.17-3.27,4.58-.84Z"/>
  <g>
    <path class="st5" d="M119.4,124.93c-.99,0-1.3,36.56-1.3,36.56,0,0-6.06-7.33-6.33-7.16-.24.15,7.18,34.09,8.98,42.31.14.02.27.04.37.05-.12-11.09-.81-71.76-1.72-71.76Z"/>
    <path class="st5" d="M130.88,154.32c-.31-.26-6.33,7.16-6.33,7.16,0,0-.26-36.64-1.3-36.56-.95.08-1.61,60.81-1.72,71.79.07,0,.2-.02.37-.04,1.79-8.11,9.26-42.13,8.99-42.36Z"/>
  </g>
  <g>
    <path class="st1" d="M183.53,136.95c-2.08,3.1-5.31,5.35-8.95,6.2,2.07-3.11,5.31-5.34,8.95-6.2h0Z"/>
    <path class="st1" d="M182.55,141.78c-2.08,3.1-5.31,5.35-8.95,6.2,2.07-3.11,5.31-5.34,8.95-6.2h0Z"/>
    <path class="st1" d="M180.63,147.28c-2.08,3.1-5.31,5.35-8.95,6.2,2.07-3.11,5.31-5.34,8.95-6.2h0Z"/>
    <path class="st1" d="M179.65,152.11c-2.08,3.1-5.31,5.35-8.95,6.2,2.07-3.11,5.31-5.34,8.95-6.2h0Z"/>
    <path class="st1" d="M178.68,156.95c-2.08,3.1-5.31,5.35-8.95,6.2,2.07-3.11,5.31-5.34,8.95-6.2h0Z"/>
  </g>
  <g>
    <path class="st1" d="M59.26,136.98c3.64.84,6.89,3.06,8.97,6.16-3.64-.83-6.88-3.07-8.97-6.16h0Z"/>
    <path class="st1" d="M60.25,141.81c3.64.84,6.89,3.06,8.97,6.16-3.64-.83-6.88-3.07-8.97-6.16h0Z"/>
    <path class="st1" d="M62.2,147.29c3.64.84,6.89,3.06,8.97,6.16-3.64-.83-6.88-3.07-8.97-6.16h0Z"/>
    <path class="st1" d="M63.19,152.12c3.64.84,6.89,3.06,8.97,6.16-3.64-.83-6.88-3.07-8.97-6.16h0Z"/>
    <path class="st1" d="M64.18,156.95c3.64.84,6.89,3.06,8.97,6.16-3.64-.83-6.88-3.07-8.97-6.16h0Z"/>
  </g>
  <g>
    <path class="st1" d="M60.87,81.88c-3.39,1.39-7.25,1.43-10.65.08,3.38-1.4,7.24-1.42,10.65-.08h0Z"/>
    <path class="st1" d="M57.64,85.29c-3.39,1.39-7.25,1.43-10.65.08,3.38-1.4,7.24-1.42,10.65-.08h0Z"/>
    <path class="st1" d="M53.26,88.7c-3.39,1.39-7.25,1.43-10.65.08,3.38-1.4,7.24-1.42,10.65-.08h0Z"/>
    <path class="st1" d="M50.03,92.11c-2.12,1.38-4.88,1.42-7.03.08,2.12-1.39,4.88-1.41,7.03-.08h0Z"/>
  </g>
  <g>
    <path class="st1" d="M181.16,81.88c3.41-1.34,7.27-1.32,10.65.08-3.4,1.35-7.27,1.31-10.65-.08h0Z"/>
    <path class="st1" d="M184.39,85.29c3.41-1.34,7.27-1.32,10.65.08-3.4,1.35-7.27,1.31-10.65-.08h0Z"/>
    <path class="st1" d="M188.76,88.7c3.41-1.34,7.27-1.32,10.65.08-3.4,1.35-7.27,1.31-10.65-.08h0Z"/>
    <path class="st1" d="M191.99,92.11c2.15-1.33,4.91-1.31,7.03.08-2.15,1.34-4.91,1.3-7.03-.08h0Z"/>
  </g>
  <path class="st1" d="M137.61,199.5c-.98-2.21-2.94-4.56-7-5.89-3.25-1.06-7.67-.89-9.29-.79-1.63-.11-6.04-.28-9.29.79-4.06,1.32-6.02,3.68-7,5.89-.98,2.21-.98,10.74-.7,11.92.28,1.18.98,3.97,3.64,6.33,2.66,2.35,6.3,3.09,8.11,3.24,1.3.1,3.86.06,5.24.03,1.37.03,3.94.08,5.24-.03,1.82-.15,5.46-.88,8.11-3.24,2.66-2.35,3.36-5.15,3.64-6.33.28-1.18.28-9.71-.7-11.92Z"/>
  <path class="st4" d="M111.33,211.79s1.31.98,2.22,1.08c0,0-1.7-1.45-1.09-3.88,0,0-1-1.22-2.27-1.36,0,0,4.92-1.48,7.19,2.1,2.71,4.29-3.63,7.34-6.06,2.06ZM129.09,212.87c.91-.09,2.22-1.08,2.22-1.08-2.43,5.29-8.77,2.23-6.06-2.06,2.27-3.59,7.19-2.1,7.19-2.1-1.26.14-2.27,1.36-2.27,1.36.61,2.43-1.09,3.88-1.09,3.88Z"/>
  <path class="st1" d="M122.66,97.04c-1.47,0-2.96-.04-4.48-.12-30.16-1.63-43.43-14.04-43.98-14.57l4.15-4.33c.11.1,12.41,11.41,40.15,12.91,27.82,1.5,46.41-12.94,46.59-13.09l3.74,4.69c-.78.62-18.54,14.51-46.18,14.51Z"/>
  <g>
    <g>
      <polygon class="st1" points="85.24 84.03 112.86 63.87 86.33 86.5 85.24 84.03"/>
      <path class="st1" d="M86.33,86.87s-.06,0-.08,0c-.12-.03-.21-.11-.26-.21l-1.09-2.47c-.07-.16-.02-.35.12-.45l27.63-20.16c.16-.12.39-.09.52.07.12.16.1.39-.05.52l-26.53,22.63c-.07.06-.15.09-.24.09ZM85.7,84.15l.77,1.73,18.62-15.88-19.39,14.15Z"/>
    </g>
    <g>
      <polygon class="st1" points="90.59 84.98 105.68 74.2 91.36 86.77 90.59 84.98"/>
      <path class="st1" d="M91.36,87.15s-.06,0-.08,0c-.12-.03-.21-.11-.26-.22l-.77-1.79c-.07-.16-.02-.35.13-.45l15.09-10.78c.16-.12.39-.08.51.07.12.16.1.38-.05.52l-14.32,12.57c-.07.06-.16.09-.25.09ZM91.05,85.11l.45,1.04,8.31-7.29-8.75,6.25Z"/>
    </g>
  </g>
  <g>
    <path class="st0" d="M41.94,219.15l-.42,5.6,3.4-2.57c-1.01-.99-2.01-2-2.98-3.04Z"/>
    <path class="st1" d="M123.81,254.45c15.04,0,29.4-2.96,42.52-8.31l-3.61-2.84c-12.25,4.69-25.39,7.15-38.9,7.15s-25.38-2.23-37.12-6.48l-3.75,2.83c12.67,4.94,26.45,7.65,40.87,7.65Z"/>
    <path class="st1" d="M123.81,33.22c11.26,0,22.25,1.71,32.7,4.99l4.21-2.8c-11.56-4.01-23.98-6.19-36.91-6.19s-25.97,2.3-37.78,6.5l3.9,2.86c10.79-3.53,22.2-5.37,33.88-5.37Z"/>
    <path class="st0" d="M26.12,44.7s-.09.09-.13.13l.22-.07-.09-.07Z"/>
    <path class="st1" d="M211,253.19l-.84,1.07c.46-.36.93-.71,1.39-1.07h-.55Z"/>
    <path class="st1" d="M123.81,4c22.28,0,43.34,5.32,61.98,14.75l3.81-2.53C169.93,5.87,147.54,0,123.81,0s-45.48,5.7-64.95,15.77l3.62,2.65c18.48-9.22,39.31-14.42,61.33-14.42Z"/>
    <path class="st1" d="M188.48,263.52c-19.3,10.3-41.31,16.14-64.67,16.14s-44.63-5.65-63.7-15.63l-3.52,2.66c20.02,10.82,42.91,16.97,67.22,16.97s47.94-6.35,68.18-17.5c-.32-.19-.64-.39-.95-.63l-2.57-2.02Z"/>
  </g>
</svg>